<svg id="visual" viewBox="0 0 960 540" width="960" height="540" xmlns="http://www.w3.org/2000/svg" xmlns:xlink="http://www.w3.org/1999/xlink" version="1.1"><path d="M0 495L14.5 475.5C29 456 58 417 87.2 417C116.3 417 145.7 456 174.8 474.2C204 492.3 233 489.7 262 485.2C291 480.7 320 474.3 349 473.8C378 473.3 407 478.7 436.2 470.7C465.3 462.7 494.7 441.3 523.8 423.5C553 405.7 582 391.3 611 391.8C640 392.3 669 407.7 698 414.5C727 421.3 756 419.7 785.2 422.7C814.3 425.7 843.7 433.3 872.8 433.7C902 434 931 427 945.5 423.5L960 420" fill="none" stroke-linecap="round" stroke-linejoin="miter" stroke="#d946ef" stroke-width="4"></path></svg>