<svg id="visual" viewBox="0 0 960 540" width="960" height="540" xmlns="http://www.w3.org/2000/svg" xmlns:xlink="http://www.w3.org/1999/xlink" version="1.1"><g stroke-width="1" stroke-linejoin="bevel"><path d="M418.7 276L323 261L407.7 328Z" fill="#9828aa" stroke="#9828aa"></path><path d="M323 261L315 369L407.7 328Z" fill="#531b7a" stroke="#531b7a"></path><path d="M418.7 276L394.7 157L323 261Z" fill="#e72fd4" stroke="#e72fd4"></path><path d="M315 369L357 433L407.7 328Z" fill="#fc2fdd" stroke="#fc2fdd"></path><path d="M394.7 157L291 171L323 261Z" fill="#43176d" stroke="#43176d"></path><path d="M323 261L229.3 347L315 369Z" fill="#742292" stroke="#742292"></path><path d="M226.3 245L229.3 347L323 261Z" fill="#d32eca" stroke="#d32eca"></path><path d="M315 369L187.3 412L357 433Z" fill="#e72fd4" stroke="#e72fd4"></path><path d="M291 171L226.3 245L323 261Z" fill="#be2cc0" stroke="#be2cc0"></path><path d="M357 433L435.7 431L407.7 328Z" fill="#ab2ab5" stroke="#ab2ab5"></path><path d="M534.3 395L558.3 256L418.7 276Z" fill="#d32eca" stroke="#d32eca"></path><path d="M534.3 395L418.7 276L407.7 328Z" fill="#742292" stroke="#742292"></path><path d="M418.7 276L548.3 196L394.7 157Z" fill="#ab2ab5" stroke="#ab2ab5"></path><path d="M435.7 431L519.3 415L407.7 328Z" fill="#d32eca" stroke="#d32eca"></path><path d="M519.3 415L534.3 395L407.7 328Z" fill="#631f86" stroke="#631f86"></path><path d="M394.7 157L317 97L291 171Z" fill="#ab2ab5" stroke="#ab2ab5"></path><path d="M291 171L191.3 164L226.3 245Z" fill="#ab2ab5" stroke="#ab2ab5"></path><path d="M461.7 66L317 97L394.7 157Z" fill="#ab2ab5" stroke="#ab2ab5"></path><path d="M558.3 256L548.3 196L418.7 276Z" fill="#ab2ab5" stroke="#ab2ab5"></path><path d="M81.7 332L187.3 412L229.3 347Z" fill="#ab2ab5" stroke="#ab2ab5"></path><path d="M229.3 347L187.3 412L315 369Z" fill="#ab2ab5" stroke="#ab2ab5"></path><path d="M219.3 95L191.3 164L291 171Z" fill="#e72fd4" stroke="#e72fd4"></path><path d="M226.3 245L86.7 265L229.3 347Z" fill="#9828aa" stroke="#9828aa"></path><path d="M614 356L610 270L558.3 256Z" fill="#43176d" stroke="#43176d"></path><path d="M558.3 256L610 270L548.3 196Z" fill="#742292" stroke="#742292"></path><path d="M529.3 78L461.7 66L548.3 196Z" fill="#531b7a" stroke="#531b7a"></path><path d="M548.3 196L461.7 66L394.7 157Z" fill="#9828aa" stroke="#9828aa"></path><path d="M311 0L219.3 95L317 97Z" fill="#43176d" stroke="#43176d"></path><path d="M317 97L219.3 95L291 171Z" fill="#742292" stroke="#742292"></path><path d="M357 433L412.7 540L435.7 431Z" fill="#fc2fdd" stroke="#fc2fdd"></path><path d="M435.7 431L519.3 540L519.3 415Z" fill="#86259e" stroke="#86259e"></path><path d="M245.3 540L352 540L357 433Z" fill="#fc2fdd" stroke="#fc2fdd"></path><path d="M352 540L412.7 540L357 433Z" fill="#fc2fdd" stroke="#fc2fdd"></path><path d="M534.3 395L614 356L558.3 256Z" fill="#be2cc0" stroke="#be2cc0"></path><path d="M619 415L614 356L534.3 395Z" fill="#9828aa" stroke="#9828aa"></path><path d="M619 415L534.3 395L519.3 415Z" fill="#631f86" stroke="#631f86"></path><path d="M614 124L529.3 78L548.3 196Z" fill="#e72fd4" stroke="#e72fd4"></path><path d="M111.7 101L111.7 203L191.3 164Z" fill="#742292" stroke="#742292"></path><path d="M191.3 164L111.7 203L226.3 245Z" fill="#ab2ab5" stroke="#ab2ab5"></path><path d="M187.3 412L245.3 540L357 433Z" fill="#fc2fdd" stroke="#fc2fdd"></path><path d="M519.3 540L619 415L519.3 415Z" fill="#9828aa" stroke="#9828aa"></path><path d="M646 176L548.3 196L610 270Z" fill="#9828aa" stroke="#9828aa"></path><path d="M111.7 203L86.7 265L226.3 245Z" fill="#e72fd4" stroke="#e72fd4"></path><path d="M187.3 412L125.7 457L245.3 540Z" fill="#531b7a" stroke="#531b7a"></path><path d="M86.7 265L81.7 332L229.3 347Z" fill="#be2cc0" stroke="#be2cc0"></path><path d="M412.7 540L519.3 540L435.7 431Z" fill="#742292" stroke="#742292"></path><path d="M81.7 332L125.7 457L187.3 412Z" fill="#ab2ab5" stroke="#ab2ab5"></path><path d="M551.3 0L403.7 0L461.7 66Z" fill="#531b7a" stroke="#531b7a"></path><path d="M461.7 66L403.7 0L317 97Z" fill="#43176d" stroke="#43176d"></path><path d="M403.7 0L311 0L317 97Z" fill="#d32eca" stroke="#d32eca"></path><path d="M219.3 95L111.7 101L191.3 164Z" fill="#86259e" stroke="#86259e"></path><path d="M646 176L614 124L548.3 196Z" fill="#9828aa" stroke="#9828aa"></path><path d="M529.3 78L551.3 0L461.7 66Z" fill="#631f86" stroke="#631f86"></path><path d="M646 176L610 270L768.7 272Z" fill="#e72fd4" stroke="#e72fd4"></path><path d="M731.7 379L610 270L614 356Z" fill="#be2cc0" stroke="#be2cc0"></path><path d="M0 196L0 261L86.7 265Z" fill="#531b7a" stroke="#531b7a"></path><path d="M193.3 0L111.7 101L219.3 95Z" fill="#ab2ab5" stroke="#ab2ab5"></path><path d="M311 0L193.3 0L219.3 95Z" fill="#631f86" stroke="#631f86"></path><path d="M668 0L551.3 0L614 124Z" fill="#9828aa" stroke="#9828aa"></path><path d="M614 124L551.3 0L529.3 78Z" fill="#fc2fdd" stroke="#fc2fdd"></path><path d="M125.7 457L115.7 540L245.3 540Z" fill="#fc2fdd" stroke="#fc2fdd"></path><path d="M0 464L115.7 540L125.7 457Z" fill="#fc2fdd" stroke="#fc2fdd"></path><path d="M0 196L86.7 265L111.7 203Z" fill="#e72fd4" stroke="#e72fd4"></path><path d="M86.7 265L0 261L81.7 332Z" fill="#be2cc0" stroke="#be2cc0"></path><path d="M81.7 332L0 375L125.7 457Z" fill="#e72fd4" stroke="#e72fd4"></path><path d="M708.7 447L731.7 379L619 415Z" fill="#be2cc0" stroke="#be2cc0"></path><path d="M619 415L731.7 379L614 356Z" fill="#86259e" stroke="#86259e"></path><path d="M650 540L708.7 447L619 415Z" fill="#43176d" stroke="#43176d"></path><path d="M519.3 540L650 540L619 415Z" fill="#9828aa" stroke="#9828aa"></path><path d="M0 261L0 375L81.7 332Z" fill="#631f86" stroke="#631f86"></path><path d="M111.7 101L0 196L111.7 203Z" fill="#ab2ab5" stroke="#ab2ab5"></path><path d="M0 58L0 196L111.7 101Z" fill="#631f86" stroke="#631f86"></path><path d="M193.3 0L111.7 0L111.7 101Z" fill="#9828aa" stroke="#9828aa"></path><path d="M851.3 330L768.7 272L731.7 379Z" fill="#742292" stroke="#742292"></path><path d="M731.7 379L768.7 272L610 270Z" fill="#531b7a" stroke="#531b7a"></path><path d="M646 176L783.7 113L614 124Z" fill="#43176d" stroke="#43176d"></path><path d="M0 375L0 464L125.7 457Z" fill="#531b7a" stroke="#531b7a"></path><path d="M768.7 272L761.7 194L646 176Z" fill="#ab2ab5" stroke="#ab2ab5"></path><path d="M783.7 113L668 0L614 124Z" fill="#531b7a" stroke="#531b7a"></path><path d="M111.7 0L0 58L111.7 101Z" fill="#ab2ab5" stroke="#ab2ab5"></path><path d="M0 464L0 540L115.7 540Z" fill="#43176d" stroke="#43176d"></path><path d="M650 540L735.7 540L708.7 447Z" fill="#e72fd4" stroke="#e72fd4"></path><path d="M831.3 481L851.3 330L731.7 379Z" fill="#fc2fdd" stroke="#fc2fdd"></path><path d="M761.7 194L783.7 113L646 176Z" fill="#fc2fdd" stroke="#fc2fdd"></path><path d="M819.3 144L783.7 113L761.7 194Z" fill="#9828aa" stroke="#9828aa"></path><path d="M111.7 0L0 0L0 58Z" fill="#e72fd4" stroke="#e72fd4"></path><path d="M853.3 277L819.3 144L761.7 194Z" fill="#742292" stroke="#742292"></path><path d="M783.7 113L781.7 0L668 0Z" fill="#d32eca" stroke="#d32eca"></path><path d="M853.3 277L761.7 194L768.7 272Z" fill="#631f86" stroke="#631f86"></path><path d="M831.3 481L731.7 379L708.7 447Z" fill="#631f86" stroke="#631f86"></path><path d="M851.3 330L853.3 277L768.7 272Z" fill="#d32eca" stroke="#d32eca"></path><path d="M735.7 540L831.3 481L708.7 447Z" fill="#d32eca" stroke="#d32eca"></path><path d="M821.3 57L781.7 0L783.7 113Z" fill="#531b7a" stroke="#531b7a"></path><path d="M842.3 0L821.3 57L960 53Z" fill="#86259e" stroke="#86259e"></path><path d="M819.3 144L821.3 57L783.7 113Z" fill="#86259e" stroke="#86259e"></path><path d="M735.7 540L861.3 540L831.3 481Z" fill="#fc2fdd" stroke="#fc2fdd"></path><path d="M960 320L853.3 277L851.3 330Z" fill="#9828aa" stroke="#9828aa"></path><path d="M960 320L960 288L853.3 277Z" fill="#86259e" stroke="#86259e"></path><path d="M960 53L821.3 57L819.3 144Z" fill="#742292" stroke="#742292"></path><path d="M821.3 57L842.3 0L781.7 0Z" fill="#43176d" stroke="#43176d"></path><path d="M960 320L851.3 330L960 471Z" fill="#d32eca" stroke="#d32eca"></path><path d="M853.3 277L960 205L819.3 144Z" fill="#d32eca" stroke="#d32eca"></path><path d="M960 471L851.3 330L831.3 481Z" fill="#9828aa" stroke="#9828aa"></path><path d="M960 288L960 205L853.3 277Z" fill="#9828aa" stroke="#9828aa"></path><path d="M861.3 540L960 471L831.3 481Z" fill="#ab2ab5" stroke="#ab2ab5"></path><path d="M960 205L960 53L819.3 144Z" fill="#e72fd4" stroke="#e72fd4"></path><path d="M861.3 540L960 540L960 471Z" fill="#be2cc0" stroke="#be2cc0"></path><path d="M960 53L960 0L842.3 0Z" fill="#631f86" stroke="#631f86"></path></g></svg>